<?xml version="1.0" encoding="utf-8"?>
<!-- Generator: Adobe Illustrator 16.0.4, SVG Export Plug-In . SVG Version: 6.00 Build 0)  -->
<!DOCTYPE svg PUBLIC "-//W3C//DTD SVG 1.1//EN" "http://www.w3.org/Graphics/SVG/1.1/DTD/svg11.dtd">
<svg version="1.1" id="UCCS_Logo" xmlns="http://www.w3.org/2000/svg" xmlns:xlink="http://www.w3.org/1999/xlink" x="0px" y="0px"
	 width="678.573px" height="93.091px" viewBox="0 0 678.573 93.091" enable-background="new 0 0 678.573 93.091"
	 xml:space="preserve">
<g id="wordmark">
	<path fill="#222222" d="M246.457,0.696V21.24c0,1.925,0.215,3.557,0.648,4.903c0.438,1.349,1.071,2.45,1.909,3.299
		c0.837,0.855,1.858,1.468,3.068,1.858c1.203,0.389,2.571,0.583,4.084,0.583c1.554,0,2.929-0.193,4.141-0.583
		c1.204-0.39,2.228-1.003,3.063-1.858c0.841-0.849,1.471-1.95,1.906-3.299c0.436-1.346,0.649-2.979,0.649-4.903V0.696h3.162v21.24
		c0,1.705-0.241,3.324-0.717,4.858c-0.484,1.534-1.239,2.874-2.277,4.02c-1.039,1.147-2.374,2.053-3.997,2.713
		c-1.628,0.673-3.603,1.001-5.931,1.001c-2.29,0-4.251-0.328-5.875-1.001c-1.628-0.66-2.963-1.565-4-2.713
		c-1.036-1.146-1.797-2.485-2.275-4.02c-0.481-1.535-0.722-3.154-0.722-4.858V0.696H246.457z"/>
	<path fill="#222222" d="M277.775,9.9v4.138h0.1c0.557-1.457,1.543-2.625,2.973-3.509c1.426-0.887,2.988-1.326,4.692-1.326
		c1.671,0,3.074,0.216,4.204,0.652c1.132,0.432,2.036,1.042,2.721,1.835c0.685,0.789,1.159,1.759,1.441,2.906
		c0.281,1.147,0.417,2.427,0.417,3.856v15.431h-2.927V18.917c0-1.022-0.093-1.977-0.277-2.857c-0.185-0.884-0.512-1.653-0.978-2.3
		c-0.466-0.654-1.093-1.164-1.88-1.535c-0.793-0.372-1.778-0.559-2.954-0.559c-1.179,0-2.221,0.208-3.136,0.629
		c-0.913,0.417-1.689,0.99-2.325,1.718c-0.635,0.729-1.129,1.597-1.483,2.601c-0.357,1.011-0.552,2.102-0.588,3.28v13.99h-2.928V9.9
		H277.775z"/>
	<path fill="#222222" d="M302.828,0.696V5.39h-2.923V0.696H302.828z M302.828,9.9v23.983h-2.923V9.9H302.828z"/>
	<path fill="#222222" d="M309.013,9.9l7.525,21.056h0.096L324.069,9.9h3.021l-8.973,23.983h-3.112L305.755,9.9H309.013z"/>
	<path fill="#222222" d="M332.132,25.958c0.295,1.129,0.765,2.147,1.417,3.045c0.652,0.895,1.472,1.641,2.465,2.229
		c0.988,0.589,2.183,0.881,3.578,0.881c2.138,0,3.812-0.554,5.02-1.671c1.208-1.116,2.046-2.604,2.508-4.461h2.928
		c-0.62,2.729-1.755,4.833-3.413,6.323c-1.663,1.484-4.005,2.224-7.042,2.224c-1.89,0-3.525-0.328-4.901-1.001
		c-1.383-0.66-2.502-1.573-3.372-2.737c-0.871-1.161-1.509-2.508-1.933-4.043c-0.415-1.534-0.622-3.152-0.622-4.857
		c0-1.58,0.207-3.128,0.622-4.645c0.424-1.521,1.062-2.876,1.933-4.069c0.87-1.192,1.989-2.153,3.372-2.883
		c1.376-0.726,3.012-1.091,4.901-1.091c1.919,0,3.561,0.39,4.927,1.162c1.362,0.774,2.467,1.791,3.32,3.043
		c0.853,1.252,1.467,2.695,1.837,4.324c0.371,1.622,0.522,3.278,0.466,4.948h-18.455C331.687,23.738,331.832,24.829,332.132,25.958z
		 M346.634,17.012c-0.358-1.023-0.864-1.926-1.513-2.72c-0.65-0.788-1.441-1.426-2.37-1.903c-0.93-0.484-1.982-0.724-3.159-0.724
		c-1.212,0-2.278,0.24-3.205,0.724c-0.935,0.477-1.721,1.115-2.371,1.903c-0.656,0.794-1.171,1.703-1.56,2.744
		c-0.386,1.037-0.645,2.098-0.77,3.176h15.523C347.182,19.101,346.985,18.033,346.634,17.012z"/>
	<path fill="#222222" d="M356.786,9.9v5.625h0.094c0.743-1.955,1.894-3.457,3.46-4.512c1.564-1.051,3.431-1.53,5.603-1.44V12.5
		c-1.333-0.058-2.542,0.12-3.625,0.534c-1.084,0.419-2.021,1.02-2.812,1.794c-0.789,0.774-1.403,1.695-1.839,2.761
		c-0.432,1.07-0.651,2.241-0.651,3.51v12.783h-2.923V9.9H356.786z"/>
	<path fill="#222222" d="M382.532,14.571c-0.34-0.666-0.798-1.215-1.371-1.651c-0.572-0.43-1.226-0.751-1.974-0.957
		c-0.745-0.196-1.535-0.298-2.372-0.298c-0.643,0-1.308,0.071-1.973,0.208c-0.667,0.144-1.279,0.374-1.833,0.698
		c-0.563,0.328-1.013,0.753-1.352,1.281c-0.339,0.523-0.515,1.174-0.515,1.949c0,0.651,0.168,1.2,0.494,1.649
		c0.322,0.45,0.731,0.83,1.232,1.143c0.493,0.307,1.035,0.562,1.625,0.76c0.588,0.205,1.126,0.365,1.626,0.49l3.902,0.886
		c0.83,0.122,1.666,0.348,2.486,0.672c0.818,0.328,1.551,0.754,2.186,1.278c0.633,0.524,1.152,1.18,1.556,1.953
		c0.402,0.773,0.605,1.689,0.605,2.741c0,1.3-0.294,2.409-0.887,3.323c-0.589,0.917-1.336,1.661-2.252,2.23
		c-0.914,0.575-1.945,0.984-3.086,1.236c-1.15,0.246-2.283,0.365-3.395,0.365c-2.826,0-5.104-0.663-6.855-1.995
		c-1.752-1.33-2.751-3.469-2.998-6.41h2.927c0.122,1.982,0.844,3.474,2.159,4.483c1.32,1.008,2.952,1.507,4.901,1.507
		c0.716,0,1.452-0.073,2.21-0.231c0.76-0.155,1.465-0.419,2.116-0.788c0.653-0.372,1.185-0.849,1.601-1.424
		c0.42-0.567,0.629-1.273,0.629-2.112c0-0.713-0.142-1.308-0.438-1.789c-0.295-0.477-0.692-0.88-1.189-1.208
		c-0.496-0.326-1.056-0.595-1.69-0.812c-0.639-0.215-1.276-0.402-1.934-0.555l-3.763-0.836c-0.962-0.25-1.844-0.538-2.649-0.862
		c-0.809-0.326-1.511-0.729-2.113-1.21c-0.607-0.48-1.08-1.07-1.416-1.767c-0.342-0.696-0.515-1.554-0.515-2.579
		c0-1.209,0.268-2.248,0.813-3.112c0.542-0.869,1.244-1.565,2.111-2.092c0.873-0.527,1.834-0.913,2.91-1.164
		c1.066-0.248,2.131-0.371,3.184-0.371c1.205,0,2.327,0.155,3.371,0.463c1.037,0.311,1.95,0.794,2.739,1.442
		c0.792,0.649,1.418,1.454,1.882,2.415c0.466,0.961,0.729,2.094,0.788,3.395h-2.923C383.062,16.019,382.875,15.234,382.532,14.571z"
		/>
	<path fill="#222222" d="M394.063,0.696V5.39h-2.932V0.696H394.063z M394.063,9.9v23.983h-2.932V9.9H394.063z"/>
	<path fill="#222222" d="M409.207,9.9v2.462h-4.877V28.54c0,0.958,0.137,1.707,0.398,2.25c0.263,0.542,0.921,0.845,1.97,0.906
		c0.837,0,1.672-0.044,2.509-0.137v2.463c-0.434,0-0.866,0.013-1.304,0.044c-0.43,0.03-0.863,0.049-1.297,0.049
		c-1.95,0-3.314-0.382-4.09-1.141c-0.771-0.756-1.149-2.161-1.115-4.206V12.362h-4.18V9.9h4.18V2.697h2.929V9.9H409.207z"/>
	<path fill="#222222" d="M413.857,9.9l7.901,20.451L429.147,9.9h2.928l-10.408,27.609c-0.438,1.02-0.839,1.862-1.21,2.527
		c-0.37,0.669-0.787,1.195-1.229,1.583c-0.456,0.385-0.979,0.667-1.584,0.837c-0.602,0.169-1.367,0.253-2.299,0.253
		c-0.592-0.028-1.045-0.051-1.375-0.067c-0.319-0.017-0.609-0.069-0.851-0.162v-2.463c0.334,0.061,0.669,0.112,0.992,0.162
		c0.325,0.044,0.658,0.069,0.997,0.069c0.656,0,1.189-0.088,1.606-0.277c0.418-0.187,0.784-0.441,1.094-0.771
		c0.306-0.322,0.568-0.719,0.79-1.18c0.212-0.467,0.449-0.98,0.693-1.535l1.026-2.696L410.743,9.9H413.857z"/>
	<path fill="#222222" d="M462.864,10.227c1.409,0.68,2.595,1.594,3.556,2.738c0.958,1.15,1.688,2.489,2.18,4.023
		c0.504,1.531,0.752,3.165,0.752,4.901c0,1.739-0.248,3.37-0.752,4.904c-0.492,1.534-1.222,2.874-2.18,4.02
		c-0.961,1.147-2.146,2.053-3.556,2.713c-1.408,0.673-3.031,1.001-4.859,1.001c-1.822,0-3.446-0.328-4.855-1.001
		c-1.406-0.66-2.59-1.565-3.552-2.713c-0.967-1.146-1.692-2.485-2.187-4.02c-0.492-1.535-0.744-3.166-0.744-4.904
		c0-1.737,0.252-3.371,0.744-4.901c0.494-1.535,1.22-2.873,2.187-4.023c0.962-1.145,2.146-2.059,3.552-2.738
		c1.409-0.684,3.033-1.024,4.855-1.024C459.833,9.203,461.456,9.543,462.864,10.227z M454.337,12.552
		c-1.055,0.587-1.93,1.361-2.626,2.322c-0.695,0.962-1.227,2.051-1.579,3.274c-0.358,1.225-0.534,2.471-0.534,3.743
		c0,1.274,0.176,2.516,0.534,3.743c0.353,1.223,0.884,2.314,1.579,3.271c0.696,0.965,1.571,1.739,2.626,2.328
		c1.047,0.589,2.273,0.881,3.668,0.881c1.396,0,2.621-0.292,3.671-0.881c1.054-0.589,1.933-1.363,2.633-2.328
		c0.69-0.957,1.218-2.048,1.575-3.271c0.351-1.227,0.536-2.469,0.536-3.743c0-1.272-0.186-2.518-0.536-3.743
		c-0.357-1.223-0.885-2.312-1.575-3.274c-0.7-0.961-1.579-1.734-2.633-2.322c-1.05-0.592-2.275-0.886-3.671-0.886
		C456.61,11.666,455.384,11.959,454.337,12.552z"/>
	<path fill="#222222" d="M478.225,12.362v21.521H475.3V12.362h-4.09V9.9h4.09V7.715c0-1.021,0.071-1.967,0.227-2.836
		c0.158-0.863,0.448-1.61,0.887-2.23c0.431-0.619,1.025-1.098,1.791-1.44c0.753-0.341,1.723-0.514,2.9-0.514
		c0.439,0,0.838,0.019,1.211,0.048c0.368,0.034,0.792,0.079,1.257,0.142v2.507c-0.402-0.062-0.778-0.115-1.117-0.162
		c-0.345-0.046-0.686-0.071-1.026-0.071c-0.804,0-1.422,0.125-1.857,0.372c-0.434,0.251-0.751,0.581-0.954,1.002
		c-0.199,0.414-0.314,0.902-0.351,1.465c-0.027,0.556-0.042,1.159-0.042,1.808V9.9h4.738v2.462H478.225z"/>
	<path fill="#222222" d="M522.122,7.32c-0.633-1.003-1.41-1.85-2.328-2.531c-0.912-0.684-1.915-1.202-3.018-1.558
		c-1.104-0.355-2.253-0.534-3.466-0.534c-2.203,0-4.084,0.418-5.669,1.254c-1.574,0.838-2.874,1.943-3.878,3.323
		c-1.009,1.379-1.753,2.936-2.233,4.67c-0.479,1.737-0.721,3.517-0.721,5.345c0,1.798,0.242,3.572,0.721,5.319
		c0.48,1.754,1.225,3.315,2.233,4.697c1.004,1.378,2.304,2.486,3.878,3.322c1.585,0.835,3.466,1.255,5.669,1.255
		c1.55,0,2.949-0.278,4.178-0.835c1.249-0.557,2.316-1.321,3.211-2.278c0.899-0.96,1.63-2.085,2.183-3.369
		c0.56-1.288,0.915-2.673,1.071-4.161h3.164c-0.22,2.044-0.693,3.887-1.441,5.529c-0.745,1.642-1.706,3.038-2.882,4.187
		c-1.18,1.146-2.563,2.027-4.162,2.646c-1.593,0.619-3.365,0.927-5.321,0.927c-2.604,0-4.887-0.471-6.853-1.413
		c-1.966-0.946-3.598-2.21-4.904-3.789c-1.301-1.581-2.273-3.407-2.93-5.485c-0.648-2.076-0.978-4.261-0.978-6.552
		c0-2.292,0.329-4.475,0.978-6.553c0.656-2.076,1.629-3.91,2.93-5.509c1.307-1.594,2.938-2.864,4.904-3.81
		C508.424,0.473,510.707,0,513.311,0c1.579,0,3.125,0.233,4.631,0.696c1.493,0.464,2.861,1.156,4.085,2.065
		c1.226,0.918,2.249,2.041,3.066,3.373c0.824,1.335,1.344,2.866,1.561,4.603h-3.164C523.216,9.466,522.756,8.33,522.122,7.32z"/>
	<path fill="#222222" d="M546.377,10.227c1.415,0.68,2.597,1.594,3.562,2.738c0.954,1.15,1.686,2.489,2.183,4.023
		c0.494,1.531,0.74,3.165,0.74,4.901c0,1.739-0.246,3.37-0.74,4.904c-0.497,1.534-1.229,2.874-2.183,4.02
		c-0.965,1.147-2.146,2.053-3.562,2.713c-1.41,0.673-3.026,1.001-4.856,1.001c-1.825,0-3.443-0.328-4.853-1.001
		c-1.415-0.66-2.602-1.565-3.555-2.713c-0.961-1.146-1.69-2.485-2.191-4.02c-0.491-1.535-0.736-3.166-0.736-4.904
		c0-1.737,0.245-3.371,0.736-4.901c0.501-1.535,1.23-2.873,2.191-4.023c0.953-1.145,2.14-2.059,3.555-2.738
		c1.409-0.684,3.027-1.024,4.853-1.024C543.351,9.203,544.967,9.543,546.377,10.227z M537.855,12.552
		c-1.055,0.587-1.933,1.361-2.635,2.322c-0.688,0.962-1.217,2.051-1.577,3.274c-0.355,1.225-0.53,2.471-0.53,3.743
		c0,1.274,0.175,2.516,0.53,3.743c0.36,1.223,0.889,2.314,1.577,3.271c0.702,0.965,1.58,1.739,2.635,2.328
		c1.053,0.589,2.274,0.881,3.665,0.881c1.398,0,2.616-0.292,3.671-0.881c1.06-0.589,1.932-1.363,2.628-2.328
		c0.7-0.957,1.222-2.048,1.58-3.271c0.358-1.227,0.539-2.469,0.539-3.743c0-1.272-0.181-2.518-0.539-3.743
		c-0.358-1.223-0.88-2.312-1.58-3.274c-0.696-0.961-1.568-1.734-2.628-2.322c-1.055-0.592-2.272-0.886-3.671-0.886
		C540.13,11.666,538.908,11.959,537.855,12.552z"/>
	<path fill="#222222" d="M560.204,0.696v16.916v16.271h-2.929V17.611V0.696H560.204z"/>
	<path fill="#222222" d="M580.815,10.227c1.412,0.68,2.594,1.594,3.559,2.738c0.959,1.15,1.69,2.489,2.183,4.023
		c0.492,1.531,0.737,3.165,0.737,4.901c0,1.739-0.245,3.37-0.737,4.904c-0.492,1.534-1.224,2.874-2.183,4.02
		c-0.965,1.147-2.146,2.053-3.559,2.713c-1.409,0.673-3.027,1.001-4.854,1.001c-1.83,0-3.448-0.328-4.854-1.001
		c-1.415-0.66-2.598-1.565-3.56-2.713c-0.963-1.146-1.686-2.485-2.186-4.02c-0.492-1.535-0.74-3.166-0.74-4.904
		c0-1.737,0.248-3.371,0.74-4.901c0.5-1.535,1.223-2.873,2.186-4.023c0.962-1.145,2.145-2.059,3.56-2.738
		c1.405-0.684,3.023-1.024,4.854-1.024C577.788,9.203,579.406,9.543,580.815,10.227z M572.293,12.552
		c-1.056,0.587-1.935,1.361-2.629,2.322c-0.696,0.962-1.222,2.051-1.584,3.274c-0.351,1.225-0.532,2.471-0.532,3.743
		c0,1.274,0.182,2.516,0.532,3.743c0.362,1.223,0.888,2.314,1.584,3.271c0.694,0.965,1.573,1.739,2.629,2.328
		c1.048,0.589,2.272,0.881,3.668,0.881c1.396,0,2.618-0.292,3.672-0.881c1.051-0.589,1.933-1.363,2.626-2.328
		c0.692-0.957,1.221-2.048,1.584-3.271c0.352-1.227,0.531-2.469,0.531-3.743c0-1.272-0.18-2.518-0.531-3.743
		c-0.363-1.223-0.892-2.312-1.584-3.274c-0.693-0.961-1.575-1.734-2.626-2.322c-1.054-0.592-2.275-0.886-3.672-0.886
		C574.565,11.666,573.341,11.959,572.293,12.552z"/>
	<path fill="#222222" d="M594.365,9.9v5.625h0.091c0.749-1.955,1.901-3.457,3.463-4.512c1.564-1.051,3.434-1.53,5.6-1.44V12.5
		c-1.332-0.058-2.543,0.12-3.621,0.534c-1.086,0.419-2.018,1.02-2.811,1.794c-0.791,0.774-1.405,1.695-1.84,2.761
		c-0.434,1.07-0.646,2.241-0.646,3.51v12.783h-2.935V9.9H594.365z"/>
	<path fill="#222222" d="M606.916,13.619c0.49-1.023,1.168-1.862,2.013-2.511c0.856-0.648,1.854-1.131,2.998-1.442
		c1.148-0.308,2.421-0.463,3.816-0.463c1.05,0,2.105,0.101,3.162,0.303c1.055,0.202,1.993,0.58,2.832,1.136
		c0.84,0.562,1.52,1.342,2.045,2.349c0.526,1.007,0.792,2.318,0.792,3.927v12.733c0,1.178,0.571,1.768,1.719,1.768
		c0.345,0,0.646-0.06,0.93-0.187v2.462c-0.344,0.064-0.64,0.111-0.904,0.143c-0.268,0.028-0.599,0.046-1.002,0.046
		c-0.742,0-1.341-0.101-1.788-0.305c-0.45-0.201-0.801-0.486-1.047-0.857c-0.245-0.375-0.409-0.814-0.488-1.327
		c-0.08-0.512-0.114-1.071-0.114-1.698h-0.096c-0.53,0.774-1.062,1.466-1.599,2.071c-0.548,0.604-1.152,1.104-1.815,1.51
		c-0.665,0.405-1.424,0.713-2.277,0.928c-0.855,0.214-1.867,0.322-3.045,0.322c-1.12,0-2.159-0.128-3.134-0.392
		c-0.984-0.265-1.829-0.68-2.56-1.253c-0.729-0.572-1.305-1.303-1.723-2.185c-0.416-0.883-0.627-1.928-0.627-3.138
		c0-1.674,0.379-2.98,1.116-3.926c0.745-0.947,1.728-1.668,2.954-2.162c1.22-0.493,2.604-0.844,4.133-1.044
		c1.537-0.205,3.091-0.394,4.673-0.583c0.62-0.062,1.158-0.138,1.628-0.232c0.464-0.091,0.85-0.257,1.157-0.483
		c0.312-0.237,0.56-0.555,0.729-0.957c0.167-0.402,0.251-0.926,0.251-1.579c0-0.99-0.159-1.804-0.488-2.44
		c-0.325-0.639-0.774-1.139-1.349-1.511c-0.575-0.371-1.238-0.625-1.995-0.769c-0.764-0.137-1.575-0.208-2.445-0.208
		c-1.854,0-3.373,0.441-4.552,1.325c-1.178,0.882-1.795,2.301-1.86,4.255h-2.926C606.12,15.846,606.42,14.636,606.916,13.619z
		 M621.553,20.777c-0.186,0.341-0.546,0.584-1.075,0.743c-0.518,0.152-0.981,0.264-1.388,0.323c-1.241,0.218-2.522,0.408-3.837,0.58
		c-1.315,0.174-2.511,0.429-3.602,0.772c-1.09,0.34-1.974,0.828-2.673,1.465c-0.695,0.634-1.044,1.537-1.044,2.714
		c0,0.743,0.149,1.402,0.442,1.977c0.294,0.575,0.688,1.066,1.185,1.485c0.494,0.417,1.069,0.738,1.723,0.955
		c0.643,0.217,1.313,0.323,1.996,0.323c1.113,0,2.187-0.167,3.206-0.509c1.02-0.338,1.91-0.836,2.671-1.491
		c0.759-0.648,1.362-1.439,1.818-2.368c0.445-0.929,0.669-1.984,0.669-3.161v-3.808H621.553z"/>
	<path fill="#222222" d="M648.835,33.883v-4.556h-0.092c-0.311,0.774-0.771,1.487-1.376,2.136c-0.604,0.65-1.288,1.2-2.071,1.652
		c-0.769,0.448-1.601,0.796-2.482,1.048c-0.881,0.246-1.761,0.365-2.626,0.365c-1.825,0-3.417-0.328-4.766-1.001
		c-1.343-0.66-2.466-1.573-3.365-2.737c-0.899-1.161-1.565-2.508-1.999-4.043c-0.43-1.534-0.646-3.152-0.646-4.857
		c0-1.705,0.217-3.324,0.646-4.854c0.434-1.538,1.1-2.883,1.999-4.045c0.899-1.163,2.022-2.084,3.365-2.764
		c1.349-0.684,2.94-1.024,4.766-1.024c0.904,0,1.775,0.111,2.626,0.324c0.854,0.22,1.652,0.553,2.398,1.002
		c0.743,0.449,1.394,0.995,1.975,1.652c0.576,0.647,1.012,1.407,1.324,2.273h0.092V0.696h2.93v33.187H648.835z M632.775,25.583
		c0.296,1.226,0.762,2.321,1.396,3.277c0.634,0.963,1.452,1.745,2.435,2.35c0.992,0.602,2.189,0.902,3.581,0.902
		c1.551,0,2.86-0.301,3.93-0.902c1.067-0.605,1.934-1.387,2.605-2.35c0.664-0.957,1.142-2.052,1.438-3.277
		c0.292-1.221,0.442-2.451,0.442-3.693c0-1.239-0.15-2.468-0.442-3.695c-0.296-1.225-0.773-2.314-1.438-3.274
		c-0.672-0.96-1.538-1.744-2.605-2.349c-1.069-0.608-2.379-0.906-3.93-0.906c-1.392,0-2.589,0.298-3.581,0.906
		c-0.982,0.604-1.801,1.389-2.435,2.349c-0.635,0.96-1.101,2.049-1.396,3.274c-0.293,1.227-0.441,2.457-0.441,3.695
		C632.334,23.133,632.482,24.362,632.775,25.583z"/>
	<path fill="#222222" d="M672.088,10.227c1.415,0.68,2.601,1.594,3.565,2.738c0.95,1.15,1.682,2.489,2.184,4.023
		c0.492,1.531,0.736,3.165,0.736,4.901c0,1.739-0.244,3.37-0.736,4.904c-0.502,1.534-1.233,2.874-2.184,4.02
		c-0.965,1.147-2.15,2.053-3.565,2.713c-1.402,0.673-3.02,1.001-4.856,1.001c-1.824,0-3.443-0.328-4.852-1.001
		c-1.412-0.66-2.595-1.565-3.56-2.713c-0.954-1.146-1.687-2.485-2.182-4.02c-0.489-1.535-0.738-3.166-0.738-4.904
		c0-1.737,0.249-3.371,0.738-4.901c0.495-1.535,1.228-2.873,2.182-4.023c0.965-1.145,2.147-2.059,3.56-2.738
		c1.408-0.684,3.027-1.024,4.852-1.024C669.068,9.203,670.686,9.543,672.088,10.227z M663.562,12.552
		c-1.051,0.587-1.927,1.361-2.619,2.322c-0.696,0.962-1.229,2.051-1.587,3.274c-0.358,1.225-0.536,2.471-0.536,3.743
		c0,1.274,0.178,2.516,0.536,3.743c0.357,1.223,0.891,2.314,1.587,3.271c0.692,0.965,1.568,1.739,2.619,2.328
		c1.058,0.589,2.278,0.881,3.669,0.881c1.399,0,2.619-0.292,3.672-0.881c1.062-0.589,1.931-1.363,2.631-2.328
		c0.698-0.957,1.225-2.048,1.582-3.271c0.354-1.227,0.537-2.469,0.537-3.743c0-1.272-0.184-2.518-0.537-3.743
		c-0.357-1.223-0.884-2.312-1.582-3.274c-0.7-0.961-1.568-1.734-2.631-2.322c-1.053-0.592-2.272-0.886-3.672-0.886
		C665.841,11.666,664.62,11.959,663.562,12.552z"/>
	<path fill="#222222" d="M266.508,57.001c-0.638-1.004-1.412-1.852-2.324-2.535c-0.916-0.68-1.919-1.196-3.016-1.555
		c-1.105-0.354-2.257-0.534-3.466-0.534c-2.199,0-4.087,0.417-5.668,1.251c-1.58,0.838-2.875,1.947-3.885,3.325
		c-1.001,1.38-1.748,2.937-2.23,4.674c-0.481,1.736-0.719,3.516-0.719,5.34c0,1.802,0.238,3.574,0.719,5.323
		c0.483,1.754,1.229,3.317,2.23,4.697c1.01,1.378,2.305,2.484,3.885,3.318c1.581,0.835,3.469,1.258,5.668,1.258
		c1.549,0,2.941-0.278,4.182-0.836c1.239-0.562,2.308-1.318,3.207-2.275c0.896-0.966,1.626-2.087,2.186-3.374
		c0.557-1.284,0.913-2.67,1.067-4.156h3.161c-0.211,2.044-0.697,3.89-1.44,5.528c-0.745,1.643-1.704,3.037-2.882,4.182
		c-1.18,1.149-2.565,2.028-4.16,2.653c-1.593,0.617-3.368,0.927-5.321,0.927c-2.602,0-4.888-0.47-6.855-1.415
		c-1.968-0.946-3.602-2.211-4.903-3.789c-1.3-1.581-2.275-3.412-2.929-5.487c-0.647-2.077-0.976-4.26-0.976-6.554
		c0-2.288,0.329-4.475,0.976-6.554c0.653-2.077,1.629-3.909,2.929-5.505c1.301-1.595,2.935-2.863,4.903-3.812
		c1.967-0.942,4.253-1.416,6.855-1.416c1.582,0,3.124,0.233,4.626,0.696c1.5,0.465,2.863,1.156,4.089,2.068
		c1.225,0.916,2.245,2.037,3.068,3.373c0.82,1.332,1.337,2.864,1.556,4.595h-3.16C267.6,59.148,267.145,58.011,266.508,57.001z"/>
	<path fill="#222222" d="M290.769,59.904c1.41,0.688,2.595,1.596,3.558,2.744c0.959,1.146,1.689,2.487,2.182,4.019
		c0.495,1.535,0.747,3.169,0.747,4.903c0,1.737-0.251,3.37-0.747,4.905c-0.493,1.532-1.223,2.876-2.182,4.021
		c-0.963,1.145-2.147,2.055-3.558,2.715c-1.41,0.671-3.028,1.002-4.856,1.002c-1.83,0-3.45-0.331-4.853-1.002
		c-1.417-0.66-2.598-1.57-3.558-2.715c-0.964-1.145-1.69-2.488-2.183-4.021c-0.498-1.535-0.743-3.168-0.743-4.905
		c0-1.734,0.245-3.368,0.743-4.903c0.493-1.531,1.219-2.873,2.183-4.019c0.96-1.148,2.142-2.056,3.558-2.744
		c1.403-0.68,3.023-1.017,4.853-1.017C287.741,58.887,289.359,59.224,290.769,59.904z M282.24,62.234
		c-1.053,0.583-1.926,1.361-2.625,2.316c-0.697,0.964-1.224,2.06-1.58,3.278c-0.356,1.226-0.533,2.472-0.533,3.741
		c0,1.271,0.177,2.518,0.533,3.743c0.356,1.222,0.883,2.315,1.58,3.273c0.699,0.964,1.572,1.736,2.625,2.321
		c1.053,0.597,2.278,0.89,3.673,0.89c1.393,0,2.616-0.293,3.673-0.89c1.048-0.585,1.928-1.357,2.626-2.321
		c0.698-0.958,1.222-2.052,1.58-3.273c0.356-1.226,0.534-2.472,0.534-3.743c0-1.27-0.178-2.516-0.534-3.741
		c-0.358-1.219-0.882-2.314-1.58-3.278c-0.699-0.955-1.579-1.733-2.626-2.316c-1.057-0.591-2.28-0.887-3.673-0.887
		C284.518,61.347,283.293,61.643,282.24,62.234z"/>
	<path fill="#222222" d="M304.596,50.377V66.41v17.154h-2.93V66.327V50.377H304.596z"/>
	<path fill="#222222" d="M325.207,59.904c1.408,0.688,2.593,1.596,3.557,2.744c0.96,1.146,1.684,2.487,2.187,4.019
		c0.494,1.535,0.741,3.169,0.741,4.903c0,1.737-0.247,3.37-0.741,4.905c-0.503,1.532-1.227,2.876-2.187,4.021
		c-0.964,1.145-2.148,2.055-3.557,2.715c-1.41,0.671-3.026,1.002-4.856,1.002s-3.447-0.331-4.856-1.002
		c-1.412-0.66-2.594-1.57-3.557-2.715c-0.959-1.145-1.686-2.488-2.188-4.021c-0.494-1.535-0.736-3.168-0.736-4.905
		c0-1.734,0.243-3.368,0.736-4.903c0.501-1.531,1.228-2.873,2.188-4.019c0.963-1.148,2.146-2.056,3.557-2.744
		c1.409-0.68,3.026-1.017,4.856-1.017S323.797,59.224,325.207,59.904z M316.677,62.234c-1.055,0.583-1.924,1.361-2.626,2.316
		c-0.693,0.964-1.223,2.06-1.577,3.278c-0.358,1.226-0.537,2.472-0.537,3.741c0,1.271,0.178,2.518,0.537,3.743
		c0.354,1.222,0.884,2.315,1.577,3.273c0.702,0.964,1.571,1.736,2.626,2.321c1.055,0.597,2.279,0.89,3.674,0.89
		c1.393,0,2.619-0.293,3.674-0.89c1.054-0.585,1.926-1.357,2.623-2.321c0.695-0.958,1.222-2.052,1.58-3.273
		c0.359-1.226,0.536-2.472,0.536-3.743c0-1.27-0.177-2.516-0.536-3.741c-0.358-1.219-0.885-2.314-1.58-3.278
		c-0.697-0.955-1.569-1.733-2.623-2.316c-1.055-0.591-2.281-0.887-3.674-0.887C318.956,61.347,317.731,61.643,316.677,62.234z"/>
	<path fill="#222222" d="M338.753,59.582v5.623h0.096c0.743-1.955,1.893-3.453,3.462-4.509c1.566-1.051,3.433-1.532,5.596-1.44
		v2.931c-1.331-0.062-2.537,0.113-3.62,0.53c-1.084,0.42-2.024,1.018-2.812,1.79c-0.792,0.775-1.405,1.695-1.836,2.769
		c-0.434,1.065-0.649,2.238-0.649,3.506v12.783h-2.932V59.582H338.753z"/>
	<path fill="#222222" d="M351.303,63.297c0.497-1.021,1.17-1.859,2.021-2.507c0.849-0.652,1.851-1.131,3.003-1.443
		c1.142-0.309,2.414-0.46,3.805-0.46c1.053,0,2.108,0.098,3.163,0.297c1.056,0.205,1.999,0.584,2.832,1.139
		c0.837,0.562,1.521,1.343,2.049,2.353c0.524,1.004,0.79,2.312,0.79,3.919v12.737c0,1.181,0.575,1.769,1.719,1.769
		c0.341,0,0.647-0.062,0.928-0.192v2.469c-0.344,0.061-0.639,0.109-0.903,0.139c-0.267,0.031-0.599,0.049-1,0.049
		c-0.743,0-1.344-0.102-1.792-0.302c-0.446-0.202-0.797-0.491-1.048-0.862c-0.248-0.372-0.41-0.812-0.484-1.323
		c-0.078-0.514-0.119-1.079-0.119-1.696h-0.087c-0.526,0.775-1.062,1.463-1.606,2.067c-0.539,0.604-1.144,1.109-1.813,1.511
		c-0.668,0.398-1.429,0.712-2.274,0.927c-0.855,0.216-1.869,0.327-3.043,0.327c-1.114,0-2.163-0.131-3.139-0.394
		c-0.979-0.268-1.829-0.683-2.557-1.254c-0.729-0.575-1.299-1.303-1.72-2.19c-0.421-0.88-0.629-1.922-0.629-3.131
		c0-1.674,0.374-2.985,1.115-3.93c0.744-0.946,1.725-1.666,2.952-2.165c1.22-0.489,2.603-0.843,4.139-1.04
		c1.532-0.201,3.088-0.395,4.668-0.583c0.617-0.061,1.161-0.143,1.631-0.233c0.462-0.091,0.847-0.253,1.159-0.483
		c0.304-0.236,0.548-0.555,0.722-0.958c0.167-0.401,0.255-0.926,0.255-1.576c0-0.993-0.16-1.809-0.489-2.44
		c-0.328-0.636-0.777-1.141-1.346-1.511c-0.575-0.371-1.241-0.63-1.999-0.769c-0.765-0.139-1.571-0.208-2.441-0.208
		c-1.859,0-3.38,0.441-4.555,1.328c-1.181,0.881-1.797,2.296-1.856,4.25h-2.928C350.512,65.528,350.805,64.321,351.303,63.297z
		 M365.942,70.455c-0.183,0.343-0.542,0.588-1.065,0.744c-0.527,0.158-0.998,0.266-1.4,0.325c-1.237,0.215-2.511,0.412-3.831,0.583
		c-1.317,0.172-2.521,0.427-3.604,0.768c-1.083,0.338-1.971,0.828-2.671,1.464c-0.7,0.631-1.044,1.538-1.044,2.716
		c0,0.745,0.146,1.402,0.433,1.978c0.303,0.571,0.695,1.067,1.191,1.488c0.495,0.414,1.07,0.732,1.724,0.953
		c0.651,0.213,1.312,0.324,1.994,0.324c1.112,0,2.187-0.174,3.208-0.512c1.022-0.34,1.91-0.84,2.675-1.486
		c0.756-0.649,1.36-1.445,1.81-2.372c0.447-0.927,0.676-1.98,0.676-3.159v-3.813H365.942z"/>
	<path fill="#222222" d="M393.227,83.564v-4.556h-0.098c-0.305,0.773-0.77,1.487-1.367,2.133c-0.605,0.656-1.294,1.202-2.069,1.656
		c-0.775,0.449-1.603,0.795-2.485,1.044c-0.882,0.248-1.762,0.371-2.63,0.371c-1.821,0-3.416-0.331-4.761-1.002
		c-1.344-0.66-2.474-1.58-3.37-2.738c-0.9-1.16-1.562-2.508-1.997-4.045c-0.439-1.534-0.651-3.151-0.651-4.857
		c0-1.702,0.212-3.321,0.651-4.856c0.435-1.534,1.097-2.879,1.997-4.038c0.896-1.17,2.026-2.083,3.37-2.771
		c1.345-0.68,2.939-1.017,4.761-1.017c0.901,0,1.774,0.105,2.63,0.32c0.849,0.216,1.647,0.555,2.396,0.999
		c0.744,0.451,1.396,1.002,1.972,1.653c0.574,0.646,1.018,1.409,1.329,2.28h0.091V50.377h2.929v33.187H393.227z M377.166,75.267
		c0.295,1.224,0.76,2.318,1.395,3.275c0.634,0.959,1.45,1.74,2.439,2.348c0.993,0.603,2.186,0.907,3.577,0.907
		c1.553,0,2.864-0.305,3.93-0.907c1.07-0.607,1.936-1.389,2.603-2.348c0.665-0.957,1.148-2.052,1.44-3.275
		c0.291-1.223,0.444-2.456,0.444-3.697c0-1.235-0.153-2.472-0.444-3.694c-0.292-1.222-0.775-2.314-1.44-3.273
		c-0.667-0.963-1.532-1.746-2.603-2.353c-1.065-0.604-2.377-0.902-3.93-0.902c-1.392,0-2.584,0.299-3.577,0.902
		c-0.989,0.606-1.806,1.39-2.439,2.353c-0.635,0.959-1.1,2.052-1.395,3.273c-0.296,1.223-0.441,2.459-0.441,3.694
		C376.725,72.811,376.87,74.044,377.166,75.267z"/>
	<path fill="#222222" d="M416.479,59.904c1.416,0.688,2.601,1.596,3.557,2.744c0.962,1.146,1.691,2.487,2.189,4.019
		c0.49,1.535,0.741,3.169,0.741,4.903c0,1.737-0.251,3.37-0.741,4.905c-0.498,1.532-1.228,2.876-2.189,4.021
		c-0.956,1.145-2.141,2.055-3.557,2.715c-1.407,0.671-3.026,1.002-4.85,1.002c-1.83,0-3.447-0.331-4.858-1.002
		c-1.411-0.66-2.6-1.57-3.558-2.715c-0.956-1.145-1.69-2.488-2.184-4.021c-0.495-1.535-0.746-3.168-0.746-4.905
		c0-1.734,0.251-3.368,0.746-4.903c0.493-1.531,1.228-2.873,2.184-4.019c0.958-1.148,2.146-2.056,3.558-2.744
		c1.411-0.68,3.028-1.017,4.858-1.017C413.453,58.887,415.072,59.224,416.479,59.904z M407.956,62.234
		c-1.055,0.583-1.935,1.361-2.623,2.316c-0.699,0.964-1.229,2.06-1.584,3.278c-0.357,1.226-0.535,2.472-0.535,3.741
		c0,1.271,0.178,2.518,0.535,3.743c0.355,1.222,0.885,2.315,1.584,3.273c0.688,0.964,1.568,1.736,2.623,2.321
		c1.058,0.597,2.274,0.89,3.674,0.89c1.393,0,2.618-0.293,3.674-0.89c1.048-0.585,1.924-1.357,2.625-2.321
		c0.691-0.958,1.217-2.052,1.577-3.273c0.356-1.226,0.53-2.472,0.53-3.743c0-1.27-0.174-2.516-0.53-3.741
		c-0.36-1.219-0.886-2.314-1.577-3.278c-0.701-0.955-1.577-1.733-2.625-2.316c-1.056-0.591-2.281-0.887-3.674-0.887
		C410.23,61.347,409.014,61.643,407.956,62.234z"/>
	<path fill="#222222" d="M443.089,76.917c0.556,1.142,1.327,2.062,2.303,2.744c0.978,0.682,2.131,1.164,3.459,1.46
		c1.334,0.295,2.765,0.443,4.277,0.443c0.864,0,1.816-0.123,2.838-0.374c1.021-0.244,1.978-0.641,2.854-1.182
		c0.883-0.545,1.623-1.237,2.208-2.096c0.595-0.848,0.889-1.879,0.889-3.088c0-0.931-0.208-1.733-0.633-2.416
		c-0.415-0.68-0.954-1.26-1.625-1.718c-0.666-0.468-1.408-0.848-2.212-1.142c-0.804-0.291-1.592-0.533-2.366-0.72l-7.392-1.811
		c-0.955-0.252-1.896-0.559-2.812-0.931c-0.912-0.372-1.708-0.869-2.394-1.486c-0.68-0.625-1.232-1.383-1.646-2.278
		c-0.418-0.899-0.628-2.001-0.628-3.3c0-0.806,0.153-1.752,0.466-2.841c0.304-1.08,0.89-2.102,1.736-3.062
		c0.854-0.963,2.025-1.774,3.516-2.439c1.484-0.668,3.394-1.001,5.716-1.001c1.639,0,3.202,0.22,4.692,0.649
		c1.485,0.438,2.789,1.085,3.903,1.956c1.118,0.87,2.006,1.94,2.672,3.229c0.669,1.283,0.999,2.782,0.999,4.484h-3.158
		c-0.066-1.269-0.343-2.382-0.856-3.326c-0.515-0.938-1.185-1.729-2.003-2.369c-0.817-0.633-1.763-1.114-2.839-1.44
		c-1.062-0.322-2.188-0.486-3.363-0.486c-1.089,0-2.133,0.116-3.141,0.349c-1.004,0.233-1.887,0.603-2.646,1.114
		c-0.761,0.515-1.372,1.188-1.837,2.023c-0.465,0.834-0.696,1.873-0.696,3.112c0,0.778,0.134,1.449,0.398,2.026
		c0.262,0.568,0.623,1.058,1.09,1.46c0.465,0.398,0.994,0.731,1.6,0.975c0.604,0.249,1.248,0.45,1.932,0.604l8.091,2
		c1.166,0.31,2.278,0.691,3.318,1.139c1.039,0.446,1.95,1.006,2.745,1.67c0.788,0.666,1.407,1.484,1.855,2.443
		c0.449,0.959,0.675,2.122,0.675,3.486c0,0.37-0.039,0.864-0.116,1.485c-0.077,0.617-0.264,1.276-0.559,1.974
		c-0.296,0.698-0.71,1.404-1.252,2.117c-0.549,0.713-1.286,1.355-2.231,1.929c-0.946,0.573-2.114,1.037-3.51,1.395
		c-1.396,0.356-3.065,0.533-5.016,0.533c-1.961,0-3.77-0.227-5.444-0.675c-1.667-0.45-3.1-1.138-4.271-2.064
		c-1.185-0.934-2.083-2.122-2.723-3.584c-0.634-1.454-0.902-3.203-0.811-5.248h3.16C442.271,74.347,442.534,75.77,443.089,76.917z"
		/>
	<path fill="#222222" d="M472.229,59.582v4.559h0.096c0.679-1.678,1.785-2.969,3.318-3.885c1.536-0.915,3.278-1.368,5.231-1.368
		c1.831,0,3.415,0.337,4.763,1.017c1.352,0.688,2.473,1.602,3.368,2.771c0.897,1.159,1.563,2.504,2.002,4.038
		c0.435,1.535,0.648,3.154,0.648,4.856c0,1.706-0.214,3.323-0.648,4.857c-0.438,1.537-1.104,2.885-2.002,4.045
		c-0.896,1.158-2.017,2.078-3.368,2.738c-1.348,0.671-2.932,1.002-4.763,1.002c-0.868,0-1.734-0.111-2.602-0.327
		c-0.872-0.215-1.678-0.54-2.417-0.975c-0.743-0.433-1.4-0.974-1.978-1.625c-0.573-0.653-1.013-1.413-1.32-2.277h-0.095V92.39
		h-2.929V59.582H472.229z M488.29,67.875c-0.295-1.222-0.759-2.314-1.4-3.273c-0.635-0.963-1.446-1.746-2.438-2.353
		c-0.991-0.604-2.185-0.902-3.576-0.902c-1.614,0-2.96,0.28-4.039,0.839c-1.091,0.557-1.953,1.297-2.608,2.226
		c-0.653,0.931-1.11,2.015-1.373,3.254c-0.261,1.244-0.391,2.542-0.391,3.904c0,1.241,0.14,2.475,0.438,3.697
		c0.295,1.224,0.778,2.318,1.447,3.275c0.66,0.959,1.531,1.74,2.596,2.348c1.075,0.603,2.382,0.907,3.931,0.907
		c1.392,0,2.585-0.305,3.576-0.907c0.992-0.607,1.804-1.389,2.438-2.348c0.642-0.957,1.105-2.052,1.4-3.275
		c0.291-1.223,0.439-2.456,0.439-3.697C488.729,70.334,488.581,69.098,488.29,67.875z"/>
	<path fill="#222222" d="M498.907,59.582v5.623h0.096c0.741-1.955,1.893-3.453,3.46-4.509c1.567-1.051,3.434-1.532,5.596-1.44v2.931
		c-1.328-0.062-2.54,0.113-3.618,0.53c-1.089,0.42-2.027,1.018-2.816,1.79c-0.787,0.775-1.402,1.695-1.833,2.769
		c-0.435,1.065-0.649,2.238-0.649,3.506v12.783h-2.931V59.582H498.907z"/>
	<path fill="#222222" d="M513.822,50.377v4.693h-2.928v-4.693H513.822z M513.822,59.582v23.982h-2.928V59.582H513.822z"/>
	<path fill="#222222" d="M522.329,59.582v4.136h0.091c0.564-1.458,1.55-2.627,2.979-3.511c1.423-0.884,2.984-1.319,4.691-1.319
		c1.673,0,3.071,0.213,4.21,0.646c1.123,0.438,2.032,1.045,2.715,1.839c0.68,0.786,1.159,1.758,1.437,2.904
		c0.288,1.144,0.421,2.429,0.421,3.857v15.43h-2.924V68.596c0-1.024-0.098-1.978-0.281-2.853c-0.187-0.887-0.511-1.655-0.981-2.307
		c-0.459-0.648-1.088-1.161-1.88-1.534c-0.791-0.366-1.773-0.556-2.946-0.556c-1.179,0-2.219,0.208-3.142,0.63
		c-0.916,0.417-1.684,0.989-2.319,1.716c-0.635,0.729-1.134,1.598-1.492,2.605c-0.353,1.006-0.545,2.095-0.577,3.276v13.989H519.4
		V59.582H522.329z"/>
	<path fill="#222222" d="M564.085,86.396c-0.384,1.424-0.995,2.637-1.835,3.626c-0.838,0.995-1.931,1.751-3.277,2.277
		c-1.341,0.528-2.998,0.792-4.953,0.792c-1.203,0-2.383-0.143-3.528-0.42c-1.142-0.281-2.172-0.71-3.09-1.301
		c-0.914-0.59-1.677-1.342-2.276-2.255c-0.606-0.912-0.957-2.005-1.049-3.276h2.929c0.154,0.898,0.457,1.65,0.908,2.255
		c0.447,0.601,0.992,1.094,1.628,1.463c0.632,0.371,1.34,0.641,2.116,0.812c0.775,0.173,1.56,0.256,2.362,0.256
		c2.73,0,4.698-0.775,5.903-2.322c1.214-1.552,1.814-3.778,1.814-6.69v-3.258h-0.091c-0.681,1.487-1.679,2.684-3.001,3.583
		c-1.315,0.896-2.858,1.349-4.626,1.349c-1.917,0-3.558-0.319-4.919-0.956c-1.368-0.632-2.491-1.509-3.376-2.628
		c-0.881-1.115-1.525-2.42-1.929-3.921c-0.396-1.504-0.598-3.108-0.598-4.814c0-1.644,0.229-3.194,0.717-4.668
		c0.48-1.474,1.182-2.762,2.091-3.864c0.915-1.097,2.047-1.966,3.393-2.597c1.345-0.638,2.896-0.95,4.621-0.95
		c0.899,0,1.746,0.121,2.535,0.368c0.789,0.251,1.516,0.599,2.163,1.043c0.649,0.45,1.229,0.974,1.743,1.562
		c0.513,0.586,0.903,1.206,1.186,1.857h0.091v-4.136h2.927v22.03C564.664,83.376,564.476,84.971,564.085,86.396z M557.368,80.008
		c0.961-0.545,1.769-1.257,2.421-2.14c0.646-0.881,1.134-1.895,1.463-3.044c0.325-1.143,0.485-2.321,0.485-3.531
		c0-1.18-0.139-2.354-0.416-3.532c-0.281-1.178-0.733-2.247-1.35-3.211c-0.617-0.955-1.417-1.733-2.395-2.316
		c-0.972-0.591-2.157-0.887-3.558-0.887c-1.387,0-2.584,0.287-3.576,0.86c-0.99,0.569-1.816,1.326-2.459,2.252
		c-0.655,0.932-1.124,1.987-1.419,3.183c-0.295,1.193-0.44,2.407-0.44,3.651c0,1.21,0.154,2.389,0.464,3.531
		c0.31,1.149,0.789,2.163,1.437,3.044c0.652,0.883,1.473,1.595,2.466,2.14c0.991,0.541,2.166,0.812,3.528,0.812
		C555.294,80.821,556.408,80.549,557.368,80.008z"/>
	<path fill="#222222" d="M584.044,64.251c-0.34-0.666-0.794-1.218-1.367-1.647c-0.579-0.437-1.234-0.753-1.978-0.958
		c-0.74-0.197-1.529-0.299-2.369-0.299c-0.653,0-1.311,0.069-1.974,0.208c-0.673,0.139-1.279,0.373-1.839,0.694
		c-0.558,0.327-1.007,0.754-1.34,1.284c-0.346,0.523-0.515,1.178-0.515,1.954c0,0.642,0.16,1.196,0.482,1.645
		c0.33,0.449,0.736,0.83,1.232,1.145c0.495,0.303,1.042,0.559,1.634,0.763c0.581,0.195,1.127,0.364,1.618,0.486l3.908,0.883
		c0.834,0.124,1.666,0.346,2.489,0.673c0.815,0.322,1.544,0.749,2.177,1.281c0.641,0.528,1.161,1.177,1.556,1.952
		c0.405,0.775,0.61,1.687,0.61,2.739c0,1.3-0.297,2.409-0.887,3.32c-0.583,0.918-1.342,1.666-2.254,2.234
		c-0.911,0.573-1.943,0.983-3.084,1.232c-1.151,0.248-2.282,0.371-3.398,0.371c-2.817,0-5.104-0.666-6.854-1.997
		c-1.75-1.336-2.748-3.471-2.993-6.412h2.923c0.122,1.979,0.849,3.474,2.161,4.479c1.317,1.01,2.953,1.515,4.91,1.515
		c0.711,0,1.439-0.08,2.204-0.233c0.757-0.157,1.464-0.423,2.114-0.792c0.649-0.369,1.187-0.843,1.604-1.417
		c0.413-0.572,0.624-1.28,0.624-2.111c0-0.713-0.145-1.31-0.436-1.794c-0.296-0.48-0.697-0.882-1.194-1.21
		c-0.495-0.322-1.056-0.594-1.694-0.811c-0.633-0.217-1.28-0.401-1.926-0.555l-3.764-0.839c-0.967-0.248-1.848-0.533-2.653-0.861
		c-0.802-0.322-1.514-0.729-2.107-1.207c-0.607-0.479-1.084-1.069-1.422-1.766c-0.341-0.693-0.512-1.559-0.512-2.58
		c0-1.21,0.271-2.246,0.813-3.115c0.546-0.863,1.248-1.561,2.117-2.093c0.861-0.523,1.832-0.907,2.898-1.158
		c1.071-0.247,2.135-0.368,3.186-0.368c1.212,0,2.334,0.151,3.369,0.46c1.038,0.312,1.952,0.791,2.744,1.443
		c0.791,0.647,1.417,1.453,1.878,2.411c0.464,0.967,0.729,2.097,0.795,3.393h-2.935C584.571,65.697,584.386,64.919,584.044,64.251z"
		/>
</g>
<g id="graphicmark">
	<g id="background">
		<polygon id="Black_background_1_" points="205.684,13.574 170.857,13.574 162.215,22.343 153.483,13.574 118.793,13.574 
			110.025,22.353 101.268,13.574 66.603,13.574 60.567,19.618 60.567,13.574 36.023,13.574 36.023,18.622 24.918,18.622 
			24.918,13.574 0.709,13.574 0.709,34.153 4.16,34.153 4.16,61.264 15.168,72.177 45.851,72.177 55.493,62.51 56.96,62.51 
			66.612,72.153 101.275,72.153 110.006,63.354 118.803,72.153 153.485,72.153 162.204,63.363 170.857,72.153 205.634,72.153 
			216.556,61.224 216.556,42.86 212.38,38.675 216.576,38.675 216.576,24.52 		"/>
		<path id="Gold_Stroke_1_" fill="#CFB87C" d="M46.145,72.886H14.875l-0.717-0.718L3.45,61.56V34.861H0V12.865h25.627v5.048h9.687
			v-5.048h25.962v5.04l5.032-5.04h35.252l8.464,8.485l8.474-8.485h35.28l8.434,8.471l8.349-8.471h35.417l11.308,11.364v15.156
			h-3.197l3.177,3.181v18.952l-11.336,11.345H170.56l-8.358-8.49l-8.421,8.49h-35.272l-8.5-8.505l-8.436,8.505H66.317l-0.723-0.728
			l-8.927-8.916h-0.881L46.145,72.886z M15.461,71.468h30.095l9.643-9.667h2.055l9.653,9.643h34.072l9.026-9.096l9.093,9.096h34.092
			l9.016-9.089l8.948,9.089h34.186l10.507-10.513V43.152l-5.176-5.186h5.197V24.81l-10.479-10.527h-34.237l-8.933,9.067
			l-9.032-9.067h-34.1l-9.062,9.073l-9.051-9.073H66.896l-7.037,7.048v-7.048H36.732v5.048H24.209v-5.048H1.419v19.161h3.449v27.524
			L15.461,71.468z"/>
	</g>
	<g id="Gold_S_1_">
		<polygon id="Gold_S_2_" fill="#CFB87C" points="172.994,67.049 165.181,59.102 165.181,52.06 175.811,52.06 175.811,56.495 
			200.873,56.495 200.873,47.235 171.647,47.249 165.181,40.79 165.181,26.612 172.994,18.675 203.561,18.665 211.464,26.623 
			211.464,33.57 200.873,33.57 200.873,29.027 175.746,29.027 175.746,38.336 204.806,38.336 211.462,44.994 211.462,59.102 
			203.527,67.049 		"/>
		<path id="White_Stroke_4_" fill="#FFFFFF" d="M203.238,19.436l7.458,7.501v5.861h-9.051v-4.539h-26.668v10.848h29.511l6.204,6.2
			v13.479l-7.486,7.493h-29.889l-7.358-7.493v-5.954h9.082v4.435h26.605V46.461l-29.673,0.015l-6.014-6.008V26.929l7.358-7.485
			L203.238,19.436 M203.883,17.89l-31.212,0.014l-8.262,8.395V41.11l6.924,6.909l28.764-0.014v7.717h-23.516v-4.437h-12.173v8.132
			l8.262,8.401h31.169l8.391-8.396V44.669l-7.104-7.109h-28.612v-7.759h23.582v4.541h12.138v-8.04L203.883,17.89L203.883,17.89z"/>
	</g>
	<g id="Gold_C_2_">
		<polygon id="Gold_C_3_" fill="#CFB87C" points="120.908,67.047 112.973,59.111 112.983,26.623 120.908,18.675 151.355,18.675 
			159.256,26.612 159.249,33.919 148.71,33.919 148.71,29.035 123.469,29.035 123.469,56.495 148.71,56.495 148.71,52.06 
			159.215,52.06 159.215,59.102 151.36,67.047 		"/>
		<path id="White_Stroke_5_" fill="#FFFFFF" d="M151.033,19.444l7.451,7.488l-0.006,6.22h-9v-4.891h-26.779v29.006h26.779v-4.435
			h8.967v5.954l-7.412,7.485h-29.807l-7.481-7.479l0.008-31.856l7.474-7.494H151.033 M151.676,17.899h-31.09l-8.372,8.403
			l-0.016,33.13l8.388,8.384h31.091l8.311-8.398v-8.132h-12.054v4.437h-23.689V29.804h23.689v4.89h12.087l0.006-8.396
			L151.676,17.899L151.676,17.899z"/>
	</g>
	<g id="Gold_C_4_">
		<polygon id="Gold_C_5_" fill="#CFB87C" points="68.717,67.047 60.772,59.114 60.784,26.623 68.714,18.675 99.169,18.675 
			107.081,26.612 107.058,33.919 96.467,33.919 96.467,29.035 71.328,29.035 71.328,56.495 96.457,56.495 96.457,52.06 
			107.017,52.06 107.017,59.102 99.169,67.047 		"/>
		<path id="White_Stroke_6_" fill="#FFFFFF" d="M98.848,19.444l7.458,7.488l-0.02,6.22h-9.044v-4.891H70.556v29.006h26.673v-4.435
			h9.017v5.954l-7.398,7.485H69.037l-7.493-7.479l0.007-31.856l7.486-7.494H98.848 M99.488,17.899H68.395l-8.384,8.403l-0.013,33.13
			l8.4,8.384h31.093l8.302-8.398v-8.132H95.681v4.437H72.097V29.804h23.599v4.89h12.131l0.026-8.396L99.488,17.899L99.488,17.899z"
			/>
	</g>
	<g id="Gold_U_1_">
		<polygon id="Gold_U_2_" fill="#CFB87C" points="17.26,67.071 9.264,59.143 9.264,29.035 5.809,29.035 5.809,18.675 19.818,18.675 
			19.818,56.495 41.125,56.495 41.125,18.675 55.448,18.675 55.448,29.035 51.679,29.035 51.679,59.097 43.742,67.071 		"/>
		<path id="White_Stroke_7_" fill="#FFFFFF" d="M54.676,19.444v8.817h-3.771v30.522l-7.484,7.514H17.58l-7.543-7.479V28.261H6.579
			v-8.817h12.468v37.823h22.851V19.444H54.676 M56.22,17.899H40.354v37.823H20.586V17.899H5.041v11.905h3.45v29.657l8.451,8.381
			h27.12l8.387-8.425V29.804h3.771V17.899L56.22,17.899z"/>
	</g>
</g>
</svg>
